HIERARCHY
ROOT Hips
{
	OFFSET 0.000000 0.000000 0.000000
	CHANNELS 6 Xposition Yposition Zposition Xrotation Yrotation Zrotation
	JOINT Spine1
	{
		OFFSET 0.000000 6.248132 0.000005
		CHANNELS 6 Xposition Yposition Zposition Xrotation Yrotation Zrotation
		JOINT Neck
		{
			OFFSET 0.000000 4.981230 0.000005
			CHANNELS 6 Xposition Yposition Zposition Xrotation Yrotation Zrotation
			JOINT Head
			{
				OFFSET 0.000000 3.167280 0.408682
				CHANNELS 6 Xposition Yposition Zposition Xrotation Yrotation Zrotation
				End Site
				{
					OFFSET 0.000000 4.086802 0.000001
				}
			}
		}
		JOINT LeftShoulder
		{
			OFFSET 0.822976 4.022078 -0.108025
			CHANNELS 6 Xposition Yposition Zposition Xrotation Yrotation Zrotation
			JOINT LeftArm
			{
				OFFSET 2.936610 0.000000 0.000000
				CHANNELS 6 Xposition Yposition Zposition Xrotation Yrotation Zrotation
				JOINT LeftForeArm
				{
					OFFSET 5.758224 0.000000 0.000000
					CHANNELS 6 Xposition Yposition Zposition Xrotation Yrotation Zrotation
					JOINT LeftHand
					{
						OFFSET 5.351510 0.000000 0.000000
						CHANNELS 6 Xposition Yposition Zposition Xrotation Yrotation Zrotation
						End Site
						{
							OFFSET 3.065100 0.000000 0.000000
						}
					}
				}
			}
		}
		JOINT RightShoulder
		{
			OFFSET -0.811624 4.022078 -0.108025
			CHANNELS 6 Xposition Yposition Zposition Xrotation Yrotation Zrotation
			JOINT RightArm
			{
				OFFSET -2.936610 0.000000 0.000000
				CHANNELS 6 Xposition Yposition Zposition Xrotation Yrotation Zrotation
				JOINT RightForeArm
				{
					OFFSET -5.758223 0.000000 0.000000
					CHANNELS 6 Xposition Yposition Zposition Xrotation Yrotation Zrotation
					JOINT RightHand
					{
						OFFSET -5.351514 0.000000 0.000000
						CHANNELS 6 Xposition Yposition Zposition Xrotation Yrotation Zrotation
						End Site
						{
							OFFSET -3.065101 0.000000 0.000000
						}
					}
				}
			}
		}
	}
	JOINT LeftUpLeg
	{
		OFFSET 2.043406 0.000000 0.000000
		CHANNELS 6 Xposition Yposition Zposition Xrotation Yrotation Zrotation
		JOINT LeftLeg
		{
			OFFSET 0.000000 -8.593854 -0.000005
			CHANNELS 6 Xposition Yposition Zposition Xrotation Yrotation Zrotation
			JOINT LeftFoot
			{
				OFFSET 0.000000 -9.009677 -0.000005
				CHANNELS 6 Xposition Yposition Zposition Xrotation Yrotation Zrotation
				JOINT LeftToeBase
				{
					OFFSET 0.000000 -1.328215 3.065106
					CHANNELS 6 Xposition Yposition Zposition Xrotation Yrotation Zrotation
					End Site
					{
						OFFSET 0.000000 0.000000 0.817362
					}
				}
			}
		}
	}
	JOINT RightUpLeg
	{
		OFFSET -2.043406 0.000000 0.000000
		CHANNELS 6 Xposition Yposition Zposition Xrotation Yrotation Zrotation
		JOINT RightLeg
		{
			OFFSET 0.000000 -8.593854 -0.000005
			CHANNELS 6 Xposition Yposition Zposition Xrotation Yrotation Zrotation
			JOINT RightFoot
			{
				OFFSET 0.000000 -9.009677 -0.000005
				CHANNELS 6 Xposition Yposition Zposition Xrotation Yrotation Zrotation
				JOINT RightToeBase
				{
					OFFSET 0.000000 -1.328215 3.065106
					CHANNELS 6 Xposition Yposition Zposition Xrotation Yrotation Zrotation
					End Site
					{
						OFFSET 0.000000 0.000000 0.817362
					}
				}
			}
		}
	}
}
MOTION
Frames: 6
Frame Time: 0.016667
0.706556 16.774275 -0.969635 11.654261 2.273444 1.015826 -0.000000 6.248132 0.000005 -5.135599 -1.255481 4.276082 -0.000000 4.981235 0.000001 5.725223 2.553924 2.198591 0.000000 3.167275 0.408681 9.974057 2.983659 -4.073304 0.822974 4.022082 -0.108027 -8.889863 0.091770 21.681966 2.936605 -0.000006 0.000000 -10.054058 -8.226881 -9.877624 5.758222 0.000004 -0.000002 -9.688706 -1.930548 2.299312 5.351507 -0.000003 0.000001 -9.487198 3.864002 -7.111125 -0.811622 4.022083 -0.108026 -4.706682 -6.142247 -18.794044 -2.936611 0.000001 0.000000 23.378272 19.346583 -6.300735 -5.758224 -0.000001 -0.000001 61.167179 48.471722 -100.822751 -5.351516 0.000002 0.000002 5.466226 5.579688 -28.662032 2.043406 -0.000000 0.000000 -36.874637 15.441613 25.419720 0.000001 -8.593855 -0.000005 33.494022 5.728831 -10.151991 -0.000002 -9.009680 -0.000005 0.270044 15.106437 -8.323937 -0.000000 -1.328215 3.065105 0.000004 -0.000000 -0.000001 -2.043406 0.000001 0.000000 -29.529708 4.914317 -27.691573 0.000004 -8.593849 -0.000002 41.185371 -11.851282 30.380722 0.000002 -9.009683 -0.000005 -15.783758 -31.505194 -10.820397 0.000000 -1.328215 3.065105 0.000005 0.000008 -0.000001 
0.720968 16.760920 -0.964957 11.577012 2.215097 1.042227 -0.000000 6.248127 0.000005 -5.053605 -1.198246 4.322590 0.000000 4.981233 0.000001 5.755149 2.547186 2.138281 -0.000000 3.167278 0.408683 10.021282 2.970310 -4.091888 0.822975 4.022075 -0.108025 -8.887636 0.114051 21.657094 2.936614 -0.000003 0.000000 -10.052055 -8.206517 -9.922336 5.758224 -0.000002 0.000000 -9.721582 -1.916546 2.306473 5.351515 -0.000002 -0.000002 -9.516952 3.889739 -7.150970 -0.811622 4.022077 -0.108025 -4.672051 -6.145854 -18.779057 -2.936610 -0.000007 0.000000 23.302888 19.356672 -6.159855 -5.758227 0.000001 -0.000002 61.595192 48.448431 -101.336204 -5.351512 0.000005 -0.000002 5.468439 5.563208 -28.517426 2.043406 -0.000002 -0.000000 -36.876902 15.419944 25.579297 0.000001 -8.593850 -0.000002 33.809453 5.680277 -10.413026 -0.000001 -9.009682 -0.000006 -0.094224 15.154277 -8.377803 0.000001 -1.328215 3.065105 0.000003 0.000008 0.000001 -2.043406 -0.000001 0.000000 -29.332329 4.831428 -27.999148 0.000000 -8.593850 -0.000003 41.275257 -12.117830 30.787703 0.000002 -9.009683 -0.000005 -15.686923 -31.569804 -10.345178 -0.000000 -1.328215 3.065104 0.000000 -0.000007 0.000000 
0.736098 16.746744 -0.960697 11.522153 2.136227 1.048012 0.000000 6.248127 0.000005 -4.996645 -1.124428 4.392904 0.000000 4.981226 0.000005 5.802284 2.541996 2.066839 -0.000000 3.167282 0.408686 10.026008 2.957257 -4.070016 0.822974 4.022072 -0.108025 -8.902410 0.100195 21.660507 2.936610 -0.000001 0.000000 -10.022397 -8.163983 -9.987753 5.758224 0.000003 0.000000 -9.767526 -1.887411 2.280617 5.351511 0.000005 0.000001 -9.560750 3.922029 -7.125268 -0.811622 4.022070 -0.108025 -4.668721 -6.120477 -18.746175 -2.936610 -0.000001 -0.000000 23.184857 19.349885 -6.010521 -5.758225 0.000001 -0.000001 62.027673 48.339260 -101.789981 -5.351516 0.000002 0.000000 5.616488 5.508568 -28.471864 2.043406 -0.000000 -0.000000 -36.943318 15.438584 25.748492 -0.000004 -8.593852 -0.000005 34.162677 5.744744 -10.605623 -0.000003 -9.009674 -0.000005 -0.442562 15.037722 -8.433842 -0.000001 -1.328212 3.065107 -0.000006 -0.000006 0.000002 -2.043406 -0.000001 0.000000 -29.177984 4.747882 -28.278289 0.000000 -8.593849 -0.000003 41.360525 -12.356067 31.172276 0.000004 -9.009683 -0.000005 -15.457661 -31.600625 -9.949905 0.000000 -1.328212 3.065105 -0.000001 -0.000012 -0.000002 
0.749264 16.733667 -0.953941 11.471277 2.018507 1.067199 -0.000000 6.248128 0.000005 -4.946922 -1.015861 4.441964 -0.000000 4.981232 0.000005 5.835793 2.524224 2.051386 0.000000 3.167279 0.408683 10.065517 2.937640 -4.119060 0.822974 4.022079 -0.108025 -8.915348 0.114351 21.656756 2.936615 0.000003 -0.000000 -10.123287 -8.153375 -10.043853 5.758223 0.000005 -0.000001 -9.719396 -1.803629 2.262909 5.351507 -0.000002 0.000002 -9.510950 3.880136 -7.194129 -0.811620 4.022076 -0.108025 -4.629460 -6.155518 -18.706942 -2.936609 -0.000000 0.000000 23.037868 19.427643 -5.880447 -5.758226 0.000006 0.000003 62.381101 48.206099 -102.174938 -5.351514 0.000000 0.000001 5.764783 5.425881 -28.436494 2.043406 -0.000002 0.000000 -36.874279 15.274557 25.906409 0.000001 -8.593852 -0.000003 34.459011 5.684425 -10.946665 -0.000003 -9.009679 -0.000005 -0.792415 15.182319 -8.318642 -0.000000 -1.328215 3.065102 0.000004 -0.000001 -0.000002 -2.043404 0.000001 0.000000 -29.002482 4.755453 -28.522901 -0.000003 -8.593848 -0.000003 41.378823 -12.522739 31.507348 0.000004 -9.009678 -0.000005 -15.194840 -31.632020 -9.344846 -0.000000 -1.328215 3.065108 -0.000002 0.000001 0.000001 
0.762176 16.720085 -0.948283 11.428580 1.884388 1.065009 -0.000000 6.248126 0.000001 -4.898050 -0.915563 4.526590 -0.000000 4.981239 0.000005 5.878973 2.522787 2.025129 -0.000000 3.167277 0.408684 10.074826 2.934918 -4.169027 0.822974 4.022079 -0.108025 -8.926399 0.106424 21.636866 2.936610 -0.000003 -0.000000 -10.183637 -8.087956 -10.086697 5.758222 0.000002 0.000000 -9.710901 -1.774535 2.234116 5.351511 0.000003 -0.000004 -9.500598 3.915720 -7.153073 -0.811622 4.022081 -0.108025 -4.601182 -6.160130 -18.664271 -2.936609 -0.000011 -0.000000 22.938659 19.489740 -5.796672 -5.758224 0.000004 -0.000000 62.728198 48.186653 -102.555202 -5.351512 -0.000000 -0.000003 5.826635 5.503901 -28.505670 2.043406 -0.000002 0.000001 -36.870116 15.213770 26.092415 -0.000004 -8.593851 -0.000004 34.729330 5.525825 -11.201625 -0.000003 -9.009680 -0.000005 -1.104813 15.328071 -8.235960 -0.000001 -1.328215 3.065105 -0.000004 -0.000006 -0.000003 -2.043406 0.000002 0.000000 -28.857607 4.742280 -28.693242 0.000001 -8.593848 -0.000003 41.351792 -12.684138 31.703658 0.000002 -9.009682 -0.000005 -14.708317 -31.624145 -8.447465 -0.000000 -1.328214 3.065105 -0.000004 -0.000001 0.000001 
0.774672 16.707825 -0.943609 11.414587 1.745944 1.058820 -0.000000 6.248135 0.000006 -4.912298 -0.808346 4.593303 0.000000 4.981236 0.000003 5.961054 2.510407 2.013968 0.000000 3.167286 0.408681 10.076141 2.920817 -4.195918 0.822978 4.022090 -0.108025 -8.922316 0.133665 21.662023 2.936611 -0.000003 0.000000 -10.314743 -8.078270 -10.182079 5.758224 0.000004 0.000001 -9.657725 -1.695324 2.240283 5.351516 0.000003 0.000002 -9.442133 3.943121 -7.214487 -0.811622 4.022086 -0.108025 -4.608531 -6.124481 -18.647680 -2.936612 0.000000 -0.000000 22.925265 19.538342 -5.653793 -5.758226 0.000003 -0.000005 62.989384 48.046768 -102.913240 -5.351516 -0.000002 0.000001 5.914192 5.412786 -28.548125 2.043406 0.000003 0.000001 -36.910363 15.145109 26.226072 -0.000002 -8.593851 -0.000003 35.033659 5.630712 -11.355514 -0.000000 -9.009676 -0.000005 -1.351321 15.239718 -8.185372 -0.000000 -1.328215 3.065106 -0.000002 -0.000001 -0.000000 -2.043406 0.000003 0.000001 -28.738687 4.743907 -28.850241 0.000001 -8.593850 -0.000003 41.279884 -12.837393 31.872104 0.000003 -9.009682 -0.000005 -14.071425 -31.463471 -7.693186 -0.000000 -1.328214 3.065105 -0.000004 -0.000009 0.000002 
